<svg xmlns="http://www.w3.org/2000/svg" xmlns:xlink="http://www.w3.org/1999/xlink" width="40" zoomAndPan="magnify" viewBox="0 0 30 30.000001" height="40" preserveAspectRatio="xMidYMid meet" version="1.0"><defs><clipPath id="645f85f51a"><path d="M 0.484375 0 L 29.515625 0 L 29.515625 29.03125 L 0.484375 29.03125 Z M 0.484375 0 " clip-rule="nonzero"/></clipPath><clipPath id="e6027b2925"><path d="M 5.472656 4.453125 L 24.34375 4.453125 L 24.34375 23.324219 L 5.472656 23.324219 Z M 5.472656 4.453125 " clip-rule="nonzero"/></clipPath></defs><g clip-path="url(#645f85f51a)"><path fill="#ffffff" d="M 0.484375 0 L 29.515625 0 L 29.515625 29.03125 L 0.484375 29.03125 Z M 0.484375 0 " fill-opacity="1" fill-rule="nonzero"/><path fill="#2c8ffa" d="M 0.484375 0 L 29.515625 0 L 29.515625 29.03125 L 0.484375 29.03125 Z M 0.484375 0 " fill-opacity="1" fill-rule="nonzero"/></g><g clip-path="url(#e6027b2925)"><path fill="#ffffff" d="M 24.523438 10.800781 L 24.523438 17.152344 L 18.175781 17.152344 L 18.175781 23.503906 L 11.824219 23.503906 L 11.824219 17.152344 L 5.472656 17.152344 L 5.472656 10.800781 L 11.824219 10.800781 L 11.824219 4.453125 L 18.175781 4.453125 L 18.175781 10.800781 Z M 24.523438 10.800781 " fill-opacity="1" fill-rule="nonzero"/></g></svg>